<svg width="154" height="101" viewBox="0 0 154 101" fill="none" xmlns="http://www.w3.org/2000/svg">
<g clip-path="url(#clip0_418_11)">
<path d="M0 20C0 8.95431 8.95431 0 20 0H134C145.046 0 154 8.95431 154 20V81C154 92.0457 145.046 101 134 101H20C8.9543 101 0 92.0457 0 81V20Z" fill="#2A4C94"/>
<path d="M62.9887 15.781C63.3608 15.2902 64.0037 15.088 64.6011 15.1149C65.4213 15.1474 66.1792 15.5556 66.7869 16.0872C67.5439 16.0927 68.3019 16.0835 69.0589 16.0909C70.2715 16.1141 71.4636 16.3655 72.6696 16.4694C74.7775 16.6123 76.8537 17.0149 78.9504 17.2441C79.6722 17.3294 80.4255 17.2255 81.1167 17.5001C82.4795 17.9974 83.4295 19.1468 84.4175 20.1488C85.1282 20.8901 85.6152 21.802 86.1608 22.663C86.4901 23.1584 86.6135 23.7725 87.0328 24.2113C87.6665 24.9146 88.0747 25.7792 88.391 26.6624C88.9653 27.9408 89.8058 29.0996 90.8189 30.0653C91.3746 30.609 92.0695 30.9736 92.6762 31.4542C94.1077 32.5507 95.4632 33.7429 96.7954 34.9573C97.8521 36.0223 98.8086 37.208 99.4997 38.5458C100.219 39.9541 100.553 41.509 101.012 43.0119C101.587 44.9434 102.351 46.8165 103.242 48.6237C103.65 49.4615 104.123 50.2733 104.418 51.162C105.149 53.1938 105.229 55.4268 104.793 57.5328C104.002 61.2947 101.834 64.603 99.3337 67.4577C98.8067 68.1628 98.0877 68.6814 97.4068 69.2241C96.2072 70.1407 94.9854 71.0295 93.7357 71.8774C92.4471 72.6808 91.1121 73.4072 89.7771 74.1309C88.8289 74.6263 87.8845 75.1393 86.8779 75.5076C85.926 75.9335 85.3898 76.9178 85.0438 77.8529C84.6708 78.9644 84.3201 80.1788 84.6653 81.3431C84.8053 81.9415 85.1792 82.4768 85.2043 83.1011C85.2386 83.5307 84.8619 83.8109 84.7098 84.1755C84.3999 84.9028 84.438 85.7257 84.0965 86.4438C83.8702 87.4735 84.0353 88.5683 83.6948 89.5795C83.5909 89.9061 83.3404 90.2141 82.9758 90.241C82.1437 90.3801 81.5082 90.973 80.8588 91.4619C80.5665 91.6984 80.1676 91.6502 79.8392 91.5287C79.2603 91.8014 78.5914 92.0176 77.9587 91.7931C77.6358 91.6651 77.287 91.6845 76.9511 91.6252C76.5958 91.5602 76.3843 91.2309 76.0596 91.1001C75.8017 90.9859 75.72 90.6891 75.6727 90.4367C75.5799 89.9664 75.746 89.4914 75.9835 89.0906C76.5661 88.1072 77.3631 87.2527 77.826 86.1998C78.3131 85.0048 78.0802 83.6995 77.9763 82.4582C77.9049 81.5314 78.673 80.8263 78.7714 79.9413C78.5784 78.9607 78.4819 77.9633 78.43 76.9651C78.4522 76.6831 78.1971 76.5049 77.9707 76.4038C77.5022 76.2006 76.9771 76.2545 76.4873 76.3352C75.6616 76.4688 74.8183 76.3667 74.0112 76.1728C73.3024 76.0179 72.5824 75.7637 71.8477 75.8945C70.7353 76.08 69.5979 76.2721 68.4716 76.0967C67.4762 75.9307 66.5763 75.2618 65.5391 75.3777C64.8488 75.4705 64.6169 76.209 64.2059 76.6636C62.5926 78.5988 60.7278 80.2994 58.9503 82.0788C57.9595 82.9963 56.5113 83.0659 55.2329 83.0733C54.397 83.0288 53.485 83.0798 52.7512 82.6094C52.4376 82.4016 52.1296 82.1808 51.8476 81.9322C51.598 81.6566 51.7928 81.242 51.6555 80.9284C51.431 80.6844 51.1193 80.5369 50.9031 80.2836C50.4235 79.7502 50.135 79.0664 49.9689 78.3753C49.8353 77.673 50.3187 77.0607 50.7538 76.569C51.2074 76.0207 51.971 75.9641 52.6287 75.8963C53.1937 75.8945 53.6418 75.5086 54.1669 75.3638C54.8748 75.1727 55.6105 75.0679 56.2914 74.7849C57.0967 74.3507 58.056 74.579 58.89 74.2366C59.3372 74.04 59.8511 73.9416 60.2111 73.5881C60.8021 73.0352 61.1258 72.2596 61.3095 71.485C61.4394 70.9005 61.5174 70.2641 61.2854 69.6944C60.4505 69.6564 59.9643 70.5517 59.1359 70.5712C58.0949 70.5925 57.0865 70.8931 56.1235 71.267C55.6921 71.4358 55.2653 71.6278 54.8831 71.8913C54.4517 72.203 53.8904 72.2652 53.3756 72.1947C53.0555 72.1585 52.7911 71.9015 52.458 71.9433C51.8327 71.9655 51.1453 72.037 50.5896 71.6863C50.2778 71.4998 50.0914 71.1111 50.2138 70.7558C50.3688 70.2529 50.4977 69.6768 50.9458 69.3456C51.5321 68.8901 52.2298 68.6081 52.9163 68.3409C53.7318 68.044 54.5668 67.7796 55.4305 67.6664C56.3805 67.5412 57.2461 67.107 58.1478 66.812C58.5031 66.6923 58.89 66.6802 59.2286 66.5095C59.9216 66.1755 60.5627 65.746 61.1908 65.3035C61.1017 64.2097 61.3151 63.1261 61.3995 62.0397C61.4979 60.2455 61.4691 58.4485 61.4756 56.6533C61.4802 55.9723 61.3828 55.296 61.3012 54.6216C61.0934 53.0129 60.8392 51.4088 60.7009 49.7918C60.6564 49.1414 60.5905 48.4827 60.7084 47.837C60.9013 46.8304 60.9282 45.8006 60.9153 44.7783C60.8883 43.9424 60.8559 43.1 60.6638 42.2818C60.4273 40.8716 60.6453 39.4318 60.9431 38.0466C61.0229 37.6301 61.0173 37.1755 60.8113 36.7951C60.6147 36.4398 60.2927 36.1661 59.9346 35.9834C59.7175 35.8618 59.4596 35.9277 59.224 35.9184C58.0272 35.9648 56.7822 35.6587 55.8396 34.897C55.1874 34.3719 54.6939 33.6418 54.4703 32.8337C54.3256 32.227 54.6187 31.6239 54.9592 31.1397C55.7478 30.0524 56.8165 29.2211 57.8157 28.3407C58.0346 28.157 58.1998 27.9102 58.2489 27.6254C58.4002 26.9213 58.3668 26.1948 58.4206 25.4805C58.505 24.2039 58.6711 22.8884 59.2936 21.7482C60.084 20.261 61.2585 19.0207 62.5026 17.9027C62.4646 17.1745 62.5258 16.3794 62.9887 15.781ZM63.1325 16.0343C62.742 16.616 62.7494 17.3461 62.7819 18.0178C61.5081 19.1274 60.3299 20.3891 59.5199 21.8837C58.7406 23.3541 58.7017 25.0649 58.6293 26.6893C58.5866 27.3137 58.5662 28.0401 58.0541 28.4826C57.1236 29.3111 56.1309 30.0858 55.3498 31.0645C55.0436 31.4662 54.743 31.9162 54.6994 32.4339C54.6577 32.7548 54.9026 33.0406 54.8293 33.3607C54.9323 33.3699 55.0362 33.3774 55.1401 33.3839L54.9137 33.3393C54.8841 33.0378 54.6799 32.7261 54.8525 32.4329C54.9898 32.149 55.0483 31.8364 55.1642 31.5451C55.3878 31.1814 55.8443 31.0181 56.2552 31.0246C57.4112 31.0738 58.633 31.1582 59.6276 31.8141C59.8085 32.0025 59.9987 32.2539 59.891 32.5294C59.7092 33.0489 59.2184 33.3746 58.7815 33.6687C58.364 33.9182 57.9372 34.1743 57.4622 34.293C57.1913 34.371 56.9306 34.2272 56.6848 34.1353C56.3257 33.9739 55.8999 34.0797 55.5557 33.8774C55.3795 33.7707 55.1698 33.652 55.1308 33.4284C55.0965 33.4692 55.0622 33.5109 55.0288 33.5527C55.3943 34.1149 55.8387 34.6335 56.4157 34.9879C57.2887 35.5047 58.3194 35.693 59.3242 35.6605C59.7268 35.6447 60.1128 35.4898 60.5191 35.5009C61.4682 35.5065 62.4293 35.5065 63.3608 35.2987C63.8738 35.1948 64.2866 34.858 64.7264 34.5983C65.3823 34.2021 66.0308 33.7948 66.7006 33.4228C67.0569 33.2401 67.4938 33.0629 67.8798 33.2651C67.4827 33.2772 67.0819 33.356 66.7377 33.5592C66.0744 33.9442 65.4185 34.3422 64.7653 34.743C64.334 35 63.922 35.3275 63.4136 35.4128C62.2438 35.6438 61.0442 35.6438 59.8567 35.6382C60.4198 35.8989 60.9227 36.3146 61.163 36.9018C61.4209 37.6737 61.086 38.4502 60.9895 39.2174C60.8308 40.2853 60.7269 41.3902 60.9718 42.4543C61.0785 42.9432 61.1184 43.4433 61.1472 43.9424C61.188 45.1744 61.2214 46.4213 61.0127 47.6413C60.8846 48.2239 60.9041 48.8251 60.9394 49.416C61.1064 51.7836 61.5823 54.1169 61.7604 56.4826C61.7382 58.339 61.7595 60.1972 61.6667 62.0527C61.6704 62.1195 61.6788 62.254 61.6825 62.3208L61.6676 62.2243C61.5572 63.2829 61.3281 64.3581 61.4942 65.4222C60.6926 65.9538 59.9114 66.555 58.9976 66.8825C57.8389 67.0736 56.811 67.7137 55.6513 67.9011C54.4554 68.057 53.2986 68.442 52.1973 68.9254C51.7195 69.1601 51.2028 69.3883 50.8614 69.8132C50.6369 70.2205 50.4801 70.6741 50.4328 71.1389C50.4736 71.2475 50.507 71.3579 50.5385 71.4711L50.468 71.1631C50.9968 71.9516 52.0322 71.6037 52.8152 71.7021C53.383 72.0249 54.1335 72.0657 54.6892 71.6965C55.0622 71.4358 55.4741 71.2391 55.8953 71.0703C56.8991 70.6723 57.9493 70.3401 59.0366 70.3105C59.6832 70.2984 60.1285 69.7789 60.6778 69.5219C60.931 69.4291 61.2956 69.3428 61.4923 69.5868C61.7678 69.9941 61.6955 70.5136 61.6908 70.9784C61.5906 71.4711 61.4515 71.9535 61.3095 72.4359C61.0646 72.8942 60.8345 73.3757 60.4505 73.7384C60.0172 74.1773 59.3928 74.3081 58.8408 74.5354C58.0866 74.8211 57.2321 74.6291 56.5011 74.9872C55.7997 75.2915 55.0418 75.4176 54.3042 75.6004C53.7587 75.7331 53.305 76.145 52.7289 76.1598C52.2845 76.1867 51.8355 76.2415 51.4171 76.4029C51.059 76.5439 50.8317 76.877 50.6053 77.1701C50.3678 77.5134 50.1155 77.929 50.237 78.3632C50.3836 78.9477 50.6304 79.5164 51.0015 79.9942C51.2548 80.3309 51.6481 80.5128 51.9394 80.8106L51.8364 80.9033L51.957 80.8671C52.0303 81.1965 51.8392 81.6557 52.1834 81.8672C52.6464 82.2235 53.1278 82.6261 53.7299 82.6966C54.5677 82.8098 55.4184 82.846 56.2627 82.7755C57.1598 82.6892 58.1469 82.5232 58.8 81.8422C59.5867 81.0777 60.3753 80.3151 61.1481 79.5359C62.1714 78.5163 63.1984 77.4921 64.1039 76.3639C64.3831 76.029 64.5612 75.605 64.9221 75.3443C65.2543 75.1022 65.6866 75.0549 66.0837 75.1096C67.0207 75.2293 67.8408 75.7841 68.7852 75.8694C69.905 76.0021 71.0136 75.7303 72.1186 75.5958C73.256 75.5716 74.3192 76.0958 75.4538 76.1283C76.26 76.2006 77.0671 75.8351 77.8631 76.0828C78.2296 76.1923 78.6702 76.4419 78.6888 76.8705C78.7565 77.8733 78.8187 78.8818 79.0367 79.8661C79.0432 80.548 78.5737 81.1065 78.3622 81.7309C78.147 82.255 78.2806 82.8256 78.3298 83.3683C78.4392 84.4278 78.4429 85.5504 77.9726 86.531C77.4243 87.6127 76.5763 88.507 76.0197 89.5832C76.4047 89.4756 76.683 89.7697 76.825 90.0907C77.2016 90.112 77.3955 90.4358 77.5198 90.7494C77.2721 90.9943 76.9502 91.126 76.6236 91.2299C76.9586 91.3775 77.3232 91.4378 77.6887 91.4071C77.7564 91.4378 77.8251 91.4702 77.8946 91.5046C77.9336 91.1669 78.0681 90.8551 78.2453 90.5685C78.6563 90.7076 78.8066 91.1288 78.8354 91.5268C78.5635 91.5482 78.2908 91.5602 78.0208 91.5936C78.6693 91.6966 79.3076 91.5148 79.8781 91.2142C80.0368 91.2791 80.1917 91.4025 80.3736 91.3756C80.6593 91.3376 80.8653 91.1177 81.0861 90.9535C81.6371 90.5007 82.2559 90.0907 82.9712 89.9654C83.2792 89.945 83.4035 89.625 83.4833 89.3735C83.654 88.751 83.6624 88.1007 83.7078 87.4615C83.7412 87.0459 83.7282 86.6145 83.8915 86.223C84.2301 85.4687 84.1466 84.5837 84.5725 83.861C84.7098 83.6132 84.9603 83.4036 84.9454 83.0974C84.913 82.6707 84.7033 82.2903 84.5641 81.8942C84.2923 81.1835 84.1708 80.4042 84.3044 79.65C84.4454 78.8252 84.6653 78.0097 85.0039 77.2425C85.4 76.3491 86.0466 75.4844 87.0096 75.1653L87.0124 75.1588C87.7407 74.9083 88.4179 74.5363 89.1007 74.1856C90.4274 73.4917 91.7346 72.7615 93.0251 72.0017C93.8702 71.5137 94.6384 70.907 95.4446 70.3596L95.4353 70.3466C96.5347 69.5636 97.6313 68.7667 98.6314 67.8585C99.6658 66.6867 100.675 65.4853 101.543 64.1828C103.073 61.92 104.286 59.379 104.675 56.6551C104.961 54.705 104.748 52.6817 104.021 50.8475C103.503 49.6248 102.817 48.4809 102.31 47.2526C102.244 47.1579 102.234 46.9696 102.118 46.9427L102.144 46.9028C101.666 45.7524 101.212 44.59 100.851 43.3969C100.419 42.0378 100.118 40.6341 99.5637 39.3167C98.906 37.7442 97.8224 36.3943 96.646 35.1809C95.2693 33.9284 93.8712 32.6945 92.3868 31.5692C91.9303 31.2148 91.4229 30.9309 90.9794 30.5598C89.932 29.672 89.0868 28.5633 88.43 27.3629C88.0524 26.6865 87.8799 25.9147 87.467 25.256C87.2434 24.8719 86.9521 24.5342 86.6729 24.1909C86.376 23.8328 86.2758 23.3662 86.0355 22.9756C85.7368 22.4774 85.4269 21.9866 85.1208 21.4931C84.591 20.621 83.8257 19.9354 83.1289 19.2025C82.3162 18.426 81.357 17.6448 80.1871 17.5771C78.5283 17.5548 76.8983 17.2264 75.259 17.0131C73.7876 16.8043 72.3004 16.7422 70.8318 16.5139C69.4523 16.2978 68.0542 16.3571 66.6644 16.3377C66.0976 15.8274 65.3897 15.4183 64.6123 15.3812C64.0575 15.3496 63.4424 15.5454 63.1325 16.0343ZM75.9724 90.6538C76.1023 90.8941 76.3676 90.9321 76.6172 90.9359L76.4873 90.87C76.5123 90.7614 76.5615 90.5443 76.5865 90.4367C76.3852 90.5202 76.1802 90.5907 75.9724 90.6538Z" fill="black"/>
<path d="M59.0235 23.6167C59.4596 23.7985 59.9327 23.9952 60.2119 24.3969C60.3984 24.7235 60.1238 25.089 59.903 25.3228C59.5885 25.5724 59.1497 25.7895 58.7443 25.6726C58.6812 25.5232 58.7341 25.3608 58.7452 25.2068C58.8231 24.6743 58.8862 24.1381 59.0235 23.6167Z" fill="black"/>
<path d="M65.2852 25.8554C66.3678 25.3971 67.4857 24.8386 68.6937 24.9304C69.5128 24.9814 70.3497 25.0083 71.1364 25.2644C70.9963 25.3609 70.8553 25.4537 70.7189 25.5548C70.2884 25.9018 69.896 26.3276 69.369 26.5261C68.8161 26.6337 68.2446 26.6133 67.6843 26.6031C67.2677 26.5855 66.8419 26.5855 66.4439 26.4473C66.032 26.3044 65.6516 26.0873 65.2852 25.8554ZM67.0942 25.886C67.2547 25.937 67.4189 25.9806 67.5841 26.0168C67.5804 25.9222 67.573 25.7329 67.5692 25.6374C67.3995 25.6967 67.2334 25.77 67.0942 25.886Z" fill="black"/>
<path d="M50.5771 70.9943C50.887 70.831 51.2043 70.6696 51.5559 70.6213C51.5457 70.8616 51.5114 71.101 51.4613 71.3376C51.2043 71.3654 50.9464 71.383 50.6885 71.3923C50.6031 71.2754 50.5911 71.1316 50.5771 70.9943Z" fill="black"/>
<path d="M53.1504 71.4906C53.3072 71.1056 53.694 70.9107 54.0345 70.7178C54.0958 70.9117 54.1245 71.1139 54.1356 71.318C53.8184 71.4247 53.489 71.5175 53.1504 71.4906Z" fill="black"/>
<path d="M50.4023 77.6432C50.4701 77.1914 50.9145 76.9873 51.2642 76.7786C51.3663 77.0161 51.3115 77.2675 51.2484 77.5078C50.9729 77.5885 50.6909 77.6479 50.4023 77.6432Z" fill="black"/>
<path d="M52.1787 81.6001C52.3188 81.178 52.7604 81.0184 53.1324 80.8625C53.317 81.0973 53.2048 81.4108 52.9886 81.5788C52.727 81.6641 52.4468 81.6214 52.1787 81.6001Z" fill="black"/>
<path d="M55.4795 82.3469C55.6854 81.9479 56.0287 81.6362 56.4276 81.4368C56.6327 81.7077 56.7588 82.1057 56.6039 82.4276C56.2402 82.5853 55.8422 82.4294 55.4795 82.3469Z" fill="black"/>
<path d="M80.6703 89.9043C80.8383 89.9182 81.0322 89.8839 81.1704 90.0082C81.3253 90.1418 81.394 90.3422 81.4914 90.5175C81.2344 90.7875 80.8911 90.9387 80.5247 90.9823C80.4468 90.614 80.5201 90.2429 80.6703 89.9043Z" fill="black"/>
<path d="M63.1325 16.0343C63.4424 15.5454 64.0575 15.3496 64.6123 15.3812C65.3897 15.4183 66.0976 15.8274 66.6644 16.3377C68.0542 16.3572 69.4522 16.2978 70.8318 16.514C72.3004 16.7422 73.7876 16.8043 75.2589 17.0131C76.8982 17.2265 78.5283 17.5549 80.1871 17.5771C81.3569 17.6449 82.3162 18.426 83.1289 19.2025C83.8256 19.9354 84.591 20.621 85.1208 21.4931C85.4269 21.9867 85.7368 22.4774 86.0355 22.9756C86.2758 23.3662 86.376 23.8329 86.6729 24.191C86.9521 24.5342 87.2434 24.8719 87.467 25.256C87.8798 25.9147 88.0524 26.6866 88.43 27.3629C89.0868 28.5634 89.932 29.672 90.9794 30.5599C91.4229 30.9309 91.9303 31.2148 92.3868 31.5692C93.8711 32.6946 95.2692 33.9285 96.646 35.1809C97.8224 36.3944 98.906 37.7442 99.5637 39.3167C100.118 40.6341 100.419 42.0378 100.85 43.3969C101.212 44.59 101.666 45.7524 102.144 46.9028L102.118 46.9427C102.107 46.9613 102.083 46.9984 102.071 47.016C101.858 47.6589 101.527 48.2508 101.268 48.8743C100.85 49.8549 100.466 50.8522 100.182 51.881C100.018 52.5119 99.842 53.1502 99.8513 53.8079C101.167 52.7225 102.538 51.6946 104.021 50.8475C104.748 52.6817 104.961 54.7051 104.675 56.6552C104.286 59.379 103.073 61.9201 101.543 64.1828C100.675 65.4853 99.6658 66.6868 98.6314 67.8585C97.6313 68.7667 96.5347 69.5637 95.4353 70.3467C94.1977 68.6322 92.9536 66.9243 91.6975 65.2246C93.0612 64.8907 94.4129 64.3581 95.465 63.4026C96.0504 62.8636 96.5514 62.2132 96.8251 61.4599C95.7043 61.9163 94.5911 62.4786 93.3683 62.5852C92.9091 62.6409 92.3357 62.4702 92.2318 61.9572C91.8273 60.4292 92.0565 58.8344 92.0407 57.2767C91.6631 58.8752 91.1928 60.5053 90.2001 61.8421C89.9468 62.2039 89.5915 62.4702 89.2668 62.7624C89.0636 62.9192 89.1258 63.2022 89.1082 63.4258C89.1527 65.747 89.0562 68.0765 88.6981 70.3726C88.4476 71.8199 88.1461 73.3117 87.3334 74.5614C87.2165 74.7553 87.1126 74.9557 87.0124 75.1588L87.0096 75.1653C86.0466 75.4845 85.4 76.3491 85.0039 77.2425C84.6652 78.0097 84.4454 78.8252 84.3044 79.65C84.1708 80.4042 84.2923 81.1835 84.5641 81.8942C84.7033 82.2903 84.9129 82.6707 84.9454 83.0974C84.9603 83.4036 84.7098 83.6133 84.5725 83.861C84.1466 84.5837 84.2301 85.4687 83.8915 86.223C83.7282 86.6145 83.7412 87.0459 83.7078 87.4615C83.6624 88.1007 83.654 88.7511 83.4833 89.3736C83.4035 89.625 83.2792 89.9451 82.9712 89.9655C82.2559 90.0907 81.6371 90.5008 81.086 90.9535C80.8652 91.1177 80.6593 91.3376 80.3735 91.3756C80.1917 91.4025 80.0368 91.2791 79.8781 91.2142C79.3076 91.5148 78.6693 91.6966 78.0208 91.5936C78.2908 91.5602 78.5635 91.5482 78.8354 91.5268C78.8066 91.1288 78.6563 90.7077 78.2453 90.5685C78.0681 90.8552 77.9336 91.1669 77.8946 91.5046C77.8251 91.4703 77.7564 91.4378 77.6887 91.4072C77.3232 91.4378 76.9585 91.3775 76.6236 91.23C76.9502 91.1261 77.2721 90.9943 77.5198 90.7494C77.3955 90.4358 77.2016 90.112 76.825 90.0907C76.683 89.7697 76.4047 89.4756 76.0197 89.5832C76.5763 88.5071 77.4243 87.6127 77.9726 86.531C78.4429 85.5504 78.4392 84.4278 78.3297 83.3683C78.2806 82.8256 78.147 82.2551 78.3622 81.7309C78.5737 81.1065 79.0432 80.548 79.0367 79.8661C78.8187 78.8818 78.7565 77.8734 78.6888 76.8705C78.6702 76.4419 78.2295 76.1923 77.8631 76.0828C77.0671 75.8351 76.26 76.2007 75.4538 76.1283C74.3191 76.0958 73.256 75.5717 72.1186 75.5958C71.0136 75.7303 69.905 76.0021 68.7852 75.8695C67.8408 75.7841 67.0207 75.2293 66.0836 75.1097C65.6866 75.0549 65.2543 75.1022 64.9221 75.3444C64.5612 75.6051 64.3831 76.029 64.1039 76.364C63.1984 77.4921 62.1714 78.5163 61.1481 79.5359C60.3753 80.3152 59.5867 81.0778 58.8 81.8422C58.1469 82.5232 57.1598 82.6892 56.2626 82.7755C55.4184 82.846 54.5677 82.8099 53.7299 82.6967C53.1278 82.6262 52.6463 82.2235 52.1834 81.8673C51.8392 81.6557 52.0303 81.1965 51.957 80.8672C52.3615 80.7456 52.7521 80.5824 53.1566 80.459C54.1669 80.1426 55.218 79.9756 56.2209 79.6314C56.9575 79.3837 57.5958 78.9254 58.2294 78.4875C59.8669 77.3446 61.4116 76.0439 62.6835 74.4974C63.1576 73.9518 63.28 73.2124 63.3246 72.5148C63.4201 70.7781 63.2132 69.0432 62.9507 67.3297C62.7215 65.8481 62.42 64.3767 62.048 62.9248C61.9738 62.614 61.842 62.319 61.6667 62.0527C61.7595 60.1973 61.7381 58.339 61.7604 56.4826C62.3152 55.7246 62.9442 55.0159 63.6706 54.4165C63.8942 54.2393 64.1363 54.0584 64.4258 54.0148C64.7626 54.0473 64.8915 54.4119 65.0279 54.6707C65.3498 55.4306 65.7487 56.1867 66.3963 56.722C67.2517 57.4391 68.0829 58.2267 68.6136 59.2231C69.0923 60.0933 69.2853 61.0823 69.3957 62.0592C69.4996 62.9563 69.2259 63.833 69.0255 64.6968C68.4883 66.8807 67.7313 69.0107 67.3203 71.2243C68.0931 71.0814 68.8177 70.7697 69.5497 70.4951C71.2224 69.8531 72.8737 69.1536 74.5687 68.5701C75.3897 68.2797 76.2729 68.3075 77.132 68.2964C78.0245 68.2852 78.917 68.3205 79.8095 68.3437C80.1444 66.8528 80.2752 65.3211 80.2576 63.795C80.1861 62.0017 80.6537 60.2362 81.2632 58.5644C81.8412 57.0624 82.5574 55.5716 83.6633 54.3813C84.2301 53.7458 85.0734 53.4591 85.6598 52.845C86.2795 52.2429 86.6172 51.3884 86.6367 50.5303C86.6506 49.8716 86.6357 49.2055 86.5077 48.5588C86.4595 48.2777 86.1951 48.1015 85.927 48.0708C85.3564 47.9975 84.7896 48.1404 84.2366 48.2666C83.2041 48.5078 82.1845 48.8585 81.1176 48.9114C80.6574 48.9253 80.1277 48.8733 79.8076 48.5013C79.4282 48.043 79.3994 47.389 79.5581 46.837C79.7668 46.0382 80.2743 45.3683 80.5786 44.6095C80.6834 44.333 80.7678 43.9433 80.4979 43.7337C80.1425 43.4804 79.6787 43.5017 79.2621 43.499C77.5866 43.5537 75.9288 44.0389 74.2459 43.845C73.5398 43.7689 72.8264 43.5101 72.3329 42.9822C71.9089 42.561 71.6334 41.9608 71.7196 41.355C71.8439 40.3985 72.4108 39.5821 72.6882 38.671C72.845 38.1803 72.8821 37.645 73.1576 37.1978C73.4545 36.7052 73.8859 36.3146 74.2978 35.9203C74.8452 35.4063 75.3619 34.8451 75.7237 34.1817C76.2665 33.2039 76.4668 32.0646 76.439 30.9551C76.4232 30.3604 76.234 29.7425 75.784 29.3306C75.258 28.8445 74.6002 28.5374 74.0297 28.1088C73.5361 27.7488 73.0797 27.3341 72.6975 26.8554C72.4201 26.5149 72.1649 26.1383 71.7846 25.9026C71.4645 25.6976 71.0851 25.6262 70.7186 25.5547C70.855 25.4536 70.996 25.3608 71.1361 25.2643C70.3494 25.0083 69.5126 24.9814 68.6934 24.9304C67.4855 24.8385 66.3675 25.397 65.2849 25.8553C65.6513 26.0872 66.0317 26.3043 66.4436 26.4472C66.8416 26.5854 67.2674 26.5854 67.684 26.6031C66.5763 27.297 65.5465 28.1069 64.5455 28.9447C63.9795 29.4039 63.4452 29.9114 62.805 30.2695C61.779 30.8493 60.7009 31.3299 59.6275 31.8141C58.633 31.1582 57.4112 31.0738 56.2552 31.0246C55.8442 31.0182 55.3878 31.1814 55.1642 31.5451C55.0482 31.8364 54.9898 32.1491 54.8525 32.4329C54.6799 32.7261 54.884 33.0378 54.9137 33.3393L55.1401 33.3839C55.0362 33.3774 54.9323 33.37 54.8293 33.3607C54.9026 33.0406 54.6577 32.7549 54.6994 32.4339C54.743 31.9162 55.0436 31.4662 55.3498 31.0645C56.1309 30.0858 57.1236 29.3111 58.0541 28.4827C58.5662 28.0401 58.5866 27.3137 58.6293 26.6893C58.7017 25.0649 58.7406 23.3541 59.5199 21.8837C60.3298 20.3891 61.5081 19.1274 62.7818 18.0178C62.7494 17.3461 62.7419 16.616 63.1325 16.0343ZM75.9121 19.3417C75.81 19.504 75.4992 19.7471 75.7321 19.9206C76.7684 20.8316 77.7981 21.7501 78.8354 22.6611C79.6842 23.3866 80.4793 24.1789 81.3653 24.8589C81.8329 23.7095 81.883 22.4385 81.7438 21.2185C81.6297 20.3529 81.433 19.4586 80.9079 18.7414C80.3123 17.9631 79.276 17.6838 78.3372 17.6736C77.3065 17.7812 76.568 18.6199 75.9121 19.3417ZM59.0236 23.6167C58.8863 24.1381 58.8232 24.6743 58.7453 25.2068C58.7341 25.3608 58.6812 25.5232 58.7443 25.6725C59.1498 25.7894 59.5886 25.5724 59.9031 25.3228C60.1239 25.089 60.3985 24.7235 60.212 24.3969C59.9328 23.9952 59.4596 23.7985 59.0236 23.6167ZM94.9037 38.5272C93.5214 40.3901 92.0333 42.2178 90.1704 43.6224C89.8188 43.9007 89.3985 44.0788 89.0636 44.3775C89.4802 44.2681 89.8745 44.0899 90.2604 43.9007C92.8247 42.625 94.964 40.3178 95.6849 37.5086C95.3732 37.8073 95.1626 38.1868 94.9037 38.5272ZM97.2843 41.5554C96.838 42.4924 96.4261 43.447 95.9205 44.3553C95.58 44.962 95.2627 45.591 94.8017 46.118C94.5317 46.425 94.2896 46.7776 94.2283 47.1904C94.1068 47.9484 94.3508 48.6943 94.5243 49.4235C94.7367 48.4354 94.7692 47.3593 95.362 46.5002C96.1088 45.2283 96.7592 43.897 97.3381 42.5406C97.6999 41.6092 98.0747 40.662 98.1749 39.66C97.8047 40.2547 97.5867 40.9264 97.2843 41.5554ZM52.1788 81.6001C52.4469 81.6214 52.7271 81.6641 52.9887 81.5787C53.2048 81.4108 53.3171 81.0973 53.1325 80.8625C52.7604 81.0184 52.3188 81.178 52.1788 81.6001ZM55.4796 82.3469C55.8424 82.4295 56.2404 82.5853 56.6041 82.4276C56.759 82.1057 56.6328 81.7077 56.4278 81.4368C56.0289 81.6363 55.6856 81.948 55.4796 82.3469ZM80.6704 89.9042C80.5201 90.2429 80.4468 90.614 80.5248 90.9823C80.8912 90.9387 81.2345 90.7874 81.4915 90.5175C81.394 90.3421 81.3254 90.1417 81.1705 90.0081C81.0322 89.8838 80.8383 89.9182 80.6704 89.9042Z" fill="#EDEDED"/>
<path d="M61.6675 62.2244L61.6823 62.3209C61.9068 63.6058 61.8215 64.9167 61.8104 66.2136C61.8011 67.4475 61.6712 68.6842 61.8057 69.9162C61.8512 70.2743 61.8131 70.638 61.6907 70.9785C61.6953 70.5137 61.7677 69.9941 61.4921 69.5869C61.2955 69.3429 60.9309 69.4292 60.6776 69.5219C60.1284 69.7789 59.6831 70.2984 59.0364 70.3105C57.9491 70.3402 56.8989 70.6723 55.8951 71.0703C55.4739 71.2392 55.062 71.4358 54.6891 71.6965C54.1333 72.0658 53.3828 72.025 52.815 71.7021C52.032 71.6038 50.9967 71.9517 50.4679 71.1631L50.5384 71.4711C50.5068 71.3579 50.4734 71.2475 50.4326 71.139C50.4799 70.6742 50.6367 70.2205 50.8612 69.8132C51.2026 69.3883 51.7194 69.1601 52.1972 68.9254C53.2984 68.442 54.4553 68.057 55.6511 67.9012C56.8108 67.7138 57.8387 67.0736 58.9975 66.8825C59.9113 66.555 60.6924 65.9539 61.494 65.4223C61.3279 64.3582 61.5571 63.2829 61.6675 62.2244ZM50.5773 70.9942C50.5913 71.1315 50.6033 71.2753 50.6887 71.3922C50.9466 71.383 51.2045 71.3653 51.4615 71.3375C51.5116 71.1009 51.5459 70.8616 51.5561 70.6213C51.2045 70.6695 50.8872 70.831 50.5773 70.9942ZM53.15 71.4906C53.4886 71.5175 53.8179 71.4247 54.1352 71.318C54.1241 71.1139 54.0953 70.9117 54.0341 70.7178C53.6936 70.9107 53.3067 71.1056 53.15 71.4906Z" fill="#EDEDED"/>
<path d="M61.3091 72.436C61.2674 72.8442 61.119 73.2302 60.9427 73.5976C60.7135 74.0791 60.5215 74.6125 60.0975 74.9613C59.7042 75.2842 59.2524 75.5356 58.8989 75.9076C58.4424 76.3604 58.2244 77.0061 57.7197 77.4161C57.1028 77.9588 56.2307 78.0377 55.585 78.534C55.1045 78.8903 54.6536 79.3059 54.0867 79.5249C53.3047 79.8282 52.5819 80.2754 51.939 80.8107C51.6477 80.5129 51.2544 80.3311 51.0011 79.9943C50.63 79.5165 50.3832 78.9478 50.2366 78.3633C50.1151 77.9292 50.3674 77.5135 50.6049 77.1703C50.8313 76.8771 51.0586 76.544 51.4167 76.403C51.8351 76.2416 52.2841 76.1869 52.7285 76.16C53.3047 76.1451 53.7583 75.7332 54.3038 75.6005C55.0414 75.4178 55.7993 75.2916 56.5007 74.9873C57.2317 74.6292 58.0862 74.8212 58.8404 74.5355C59.3924 74.3082 60.0168 74.1774 60.4501 73.7386C60.8341 73.3758 61.0642 72.8943 61.3091 72.436ZM50.4018 77.6434C50.6903 77.648 50.9723 77.5887 51.2479 77.508C51.3109 77.2677 51.3657 77.0163 51.2636 76.7788C50.9139 76.9875 50.4695 77.1916 50.4018 77.6434Z" fill="#EDEDED"/>
<path d="M75.9717 90.6539C76.1795 90.5908 76.3845 90.5203 76.5858 90.4368C76.5608 90.5444 76.5116 90.7615 76.4866 90.87L76.6165 90.9359C76.3669 90.9322 76.1016 90.8941 75.9717 90.6539Z" fill="#EDEDED"/>
<path d="M75.912 19.3416C76.568 18.6199 77.3064 17.7812 78.3371 17.6736C79.276 17.6838 80.3123 17.963 80.9079 18.7414C81.433 19.4585 81.6297 20.3529 81.7438 21.2185C81.8829 22.4384 81.8328 23.7094 81.3653 24.8589C80.4793 24.1789 79.6842 23.3866 78.8353 22.6611C77.7981 21.75 76.7683 20.8316 75.7321 19.9206C75.4992 19.7471 75.81 19.504 75.912 19.3416Z" fill="#D0D0D0"/>
<path d="M66.9114 31.9653C67.2148 31.751 67.5989 31.4977 67.982 31.6554C68.4162 31.8428 68.829 32.097 69.1695 32.4264C69.4015 32.6462 69.5583 33.0192 69.3681 33.3142C69.1241 33.6677 68.7233 33.8708 68.3438 34.0453C67.8457 34.2716 67.2927 34.2995 66.7704 34.4405C66.4587 34.5119 66.2648 34.7856 66.0997 35.0379C65.8111 35.4851 65.5337 35.9545 65.12 36.3006C64.6858 36.6745 64.1013 36.77 63.5911 37.0001C62.8118 37.3591 61.9564 37.0224 61.1623 36.9017C60.922 36.3145 60.4191 35.8989 59.856 35.6382C61.0435 35.6437 62.2431 35.6437 63.4129 35.4127C63.9213 35.3274 64.3333 34.9999 64.7646 34.7429C65.4178 34.3421 66.0737 33.9441 66.737 33.5591C67.0812 33.3559 67.482 33.2771 67.879 33.265C67.4931 33.0628 67.0562 33.24 66.6999 33.4227C66.0301 33.7948 65.3816 34.202 64.7257 34.5982C64.2859 34.858 63.8731 35.1947 63.3601 35.2986C62.4286 35.5064 61.4675 35.5064 60.5184 35.5009C60.1121 35.4897 59.7261 35.6447 59.3235 35.6604C58.3187 35.6929 57.288 35.5046 56.415 34.9878C57.4727 34.691 58.5952 34.5583 59.6834 34.7522C60.3792 34.8617 60.999 35.3033 61.7235 35.2532C63.0122 35.2031 64.1755 34.5138 65.1617 33.7326C65.8315 33.2288 66.224 32.4486 66.9114 31.9653Z" fill="#D0D0D0"/>
<path d="M94.9036 38.5272C95.1624 38.1867 95.373 37.8073 95.6847 37.5085C94.9639 40.3177 92.8245 42.625 90.2603 43.9006C89.8743 44.0899 89.48 44.268 89.0635 44.3775C89.3984 44.0788 89.8187 43.9006 90.1703 43.6223C92.0332 42.2177 93.5212 40.3901 94.9036 38.5272Z" fill="#D0D0D0"/>
<path d="M97.284 41.5553C97.5864 40.9263 97.8044 40.2546 98.1746 39.6599C98.0744 40.6619 97.6996 41.6091 97.3378 42.5405C96.7589 43.8969 96.1085 45.2282 95.3617 46.5001C94.7689 47.3592 94.7364 48.4354 94.5239 49.4234C94.3505 48.6942 94.1065 47.9483 94.228 47.1903C94.2892 46.7775 94.5314 46.425 94.8013 46.1179C95.2624 45.5909 95.5797 44.9619 95.9202 44.3552C96.4258 43.4469 96.8377 42.4923 97.284 41.5553Z" fill="#D0D0D0"/>
<path d="M102.117 46.9426C102.233 46.9695 102.244 47.1579 102.309 47.2525C102.817 48.4808 103.502 49.6247 104.02 50.8475C102.538 51.6945 101.166 52.7224 99.8509 53.8079C99.8417 53.1501 100.018 52.5118 100.181 51.881C100.466 50.8521 100.85 49.8548 101.268 48.8742C101.526 48.2507 101.858 47.6588 102.071 47.0159C102.082 46.9983 102.106 46.9612 102.117 46.9426Z" fill="#D0D0D0"/>
<path d="M92.04 57.2766C92.0558 58.8343 91.8267 60.429 92.2311 61.957C92.3351 62.4701 92.9084 62.6408 93.3676 62.5851C94.5904 62.4784 95.7037 61.9162 96.8244 61.4598C96.5507 62.2131 96.0497 62.8634 95.4643 63.4024C94.4123 64.358 93.0605 64.8905 91.6968 65.2245C92.9529 66.9241 94.197 68.6321 95.4346 70.3465L95.4439 70.3595C94.6377 70.9069 93.8695 71.5136 93.0244 72.0016C91.7339 72.7614 90.4267 73.4915 89.1 74.1855C88.4172 74.5362 87.74 74.9082 87.0117 75.1587C87.1119 74.9555 87.2158 74.7551 87.3327 74.5612C88.1454 73.3116 88.4469 71.8198 88.6974 70.3725C89.0555 68.0764 89.152 65.7468 89.1075 63.4256C89.1251 63.202 89.0629 62.9191 89.2661 62.7623C89.5908 62.4701 89.9461 62.2038 90.1994 61.842C91.1921 60.5051 91.6624 58.8751 92.04 57.2766Z" fill="#D0D0D0"/>
<path d="M61.6662 62.0527C61.8416 62.319 61.9733 62.614 62.0475 62.9248C62.4195 64.3767 62.721 65.8481 62.9502 67.3297C63.2127 69.0432 63.4196 70.7781 63.3241 72.5148C63.2795 73.2125 63.1571 73.9519 62.683 74.4974C61.4111 76.0439 59.8664 77.3446 58.229 78.4875C57.5953 78.9254 56.957 79.3837 56.2204 79.6314C55.2175 79.9756 54.1664 80.1426 53.1561 80.459C52.7516 80.5824 52.361 80.7457 51.9565 80.8672L51.8359 80.9034L51.9389 80.8106C52.5818 80.2753 53.3045 79.8281 54.0866 79.5248C54.6535 79.3058 55.1043 78.8902 55.5849 78.5339C56.2306 78.0376 57.1027 77.9587 57.7196 77.416C58.2243 77.006 58.4423 76.3603 58.8988 75.9075C59.2522 75.5355 59.7041 75.2841 60.0974 74.9612C60.5214 74.6124 60.7134 74.079 60.9426 73.5975C61.1188 73.2301 61.2673 72.8441 61.309 72.4359C61.451 71.9535 61.5901 71.4711 61.6903 70.9785C61.8128 70.638 61.8508 70.2743 61.8054 69.9162C61.6708 68.6842 61.8007 67.4475 61.81 66.2136C61.8211 64.9166 61.9065 63.6058 61.682 62.3209C61.6783 62.2541 61.6699 62.1195 61.6662 62.0527Z" fill="#D0D0D0"/>
<path d="M69.3683 26.526C69.8953 26.3275 70.2877 25.9017 70.7182 25.5547C71.0846 25.6261 71.4641 25.6976 71.7841 25.9026C72.1645 26.1382 72.4196 26.5149 72.697 26.8554C73.0792 27.3341 73.5357 27.7488 74.0292 28.1087C74.5998 28.5374 75.2576 28.8444 75.7836 29.3306C76.2335 29.7425 76.4228 30.3604 76.4386 30.955C76.4664 32.0646 76.266 33.2039 75.7233 34.1817C75.3615 34.845 74.8447 35.4063 74.2974 35.9203C73.8855 36.3146 73.4541 36.7051 73.1572 37.1978C72.8816 37.6449 72.8445 38.1802 72.6877 38.671C72.4104 39.582 71.8435 40.3984 71.7192 41.3549C71.6329 41.9607 71.9084 42.561 72.3324 42.9822C72.826 43.5101 73.5394 43.7689 74.2454 43.845C75.9283 44.0389 77.5862 43.5537 79.2617 43.4989C79.6782 43.5017 80.1421 43.4804 80.4974 43.7336C80.7674 43.9433 80.683 44.333 80.5781 44.6094C80.2738 45.3683 79.7664 46.0381 79.5576 46.8369C79.399 47.3889 79.4277 48.043 79.8072 48.5013C80.1272 48.8733 80.657 48.9252 81.1171 48.9113C82.184 48.8584 83.2036 48.5078 84.2362 48.2666C84.7891 48.1404 85.356 47.9975 85.9265 48.0708C86.1946 48.1014 86.459 48.2777 86.5073 48.5588C86.6353 49.2054 86.6501 49.8715 86.6362 50.5302C86.6167 51.3884 86.2791 52.2428 85.6593 52.8449C85.073 53.4591 84.2297 53.7457 83.6628 54.3812C82.557 55.5715 81.8408 57.0624 81.2628 58.5644C80.6533 60.2362 80.1857 62.0017 80.2571 63.795C80.2748 65.3211 80.1439 66.8528 79.809 68.3436C78.9166 68.3205 78.0241 68.2852 77.1316 68.2963C76.2725 68.3075 75.3893 68.2796 74.5683 68.57C72.8733 69.1536 71.2219 69.8531 69.5492 70.4951C68.8172 70.7697 68.0927 71.0814 67.3199 71.2243C67.7309 69.0107 68.4879 66.8806 69.025 64.6967C69.2254 63.833 69.4991 62.9563 69.3952 62.0592C69.2848 61.0823 69.0918 60.0933 68.6131 59.2231C68.0825 58.2267 67.2512 57.4391 66.3958 56.7219C65.7483 56.1866 65.3494 55.4305 65.0274 54.6707C64.8911 54.4119 64.7621 54.0473 64.4253 54.0148C64.1359 54.0584 63.8937 54.2393 63.6702 54.4165C62.9437 55.0158 62.3147 55.7246 61.76 56.4826C61.5818 54.1168 61.1059 51.7836 60.9389 49.416C60.9037 48.825 60.8842 48.2239 61.0122 47.6413C61.2209 46.4213 61.1875 45.1744 61.1467 43.9424C61.118 43.4433 61.0781 42.9432 60.9714 42.4543C60.7265 41.3902 60.8304 40.2853 60.989 39.2174C61.0855 38.4502 61.4204 37.6737 61.1625 36.9018C61.9566 37.0224 62.812 37.3592 63.5913 37.0001C64.1016 36.7701 64.686 36.6745 65.1202 36.3006C65.534 35.9546 65.8114 35.4852 66.0999 35.038C66.265 34.7856 66.4589 34.512 66.7707 34.4405C67.293 34.2995 67.8459 34.2717 68.3441 34.0453C68.7235 33.8709 69.1243 33.6677 69.3683 33.3143C69.5585 33.0192 69.4017 32.6463 69.1698 32.4264C68.8293 32.0971 68.4165 31.8429 67.9823 31.6555C67.5991 31.4978 67.215 31.751 66.9117 31.9653C66.2242 32.4487 65.8318 33.2289 65.162 33.7327C64.1758 34.5138 63.0124 35.2031 61.7238 35.2532C60.9992 35.3033 60.3795 34.8617 59.6837 34.7522C58.5955 34.5584 57.4729 34.691 56.4153 34.9879C55.8382 34.6335 55.3938 34.1149 55.0283 33.5527C55.0617 33.5109 55.096 33.4692 55.1304 33.4284C55.1693 33.652 55.379 33.7707 55.5553 33.8774C55.8995 34.0796 56.3253 33.9739 56.6843 34.1353C56.9302 34.2271 57.1909 34.3709 57.4618 34.293C57.9368 34.1743 58.3635 33.9182 58.781 33.6687C59.218 33.3746 59.7087 33.0489 59.8906 32.5294C59.9982 32.2539 59.808 32.0024 59.6271 31.8141C60.7005 31.3298 61.7785 30.8493 62.8046 30.2694C63.4447 29.9113 63.9791 29.4039 64.545 28.9446C65.546 28.1069 66.5758 27.297 67.6835 26.603C68.2439 26.6132 68.8154 26.6336 69.3683 26.526Z" fill="white"/>
<path d="M67.0938 25.8858C67.2329 25.7699 67.399 25.6966 67.5688 25.6372C67.5725 25.7328 67.5799 25.922 67.5836 26.0167C67.4185 25.9805 67.2542 25.9369 67.0938 25.8858Z" fill="white"/>
</g>
<defs>
<clipPath id="clip0_418_11">
<path d="M0 20C0 8.95431 8.95431 0 20 0H134C145.046 0 154 8.95431 154 20V81C154 92.0457 145.046 101 134 101H20C8.9543 101 0 92.0457 0 81V20Z" fill="white"/>
</clipPath>
</defs>
</svg>
